<svg xmlns="http://www.w3.org/2000/svg" width="900" height="1260" viewBox="0 0 900 1260">
  <defs>
    <pattern id="grid" width="54" height="54" patternUnits="userSpaceOnUse">
      <path d="M54 0H0v54" fill="none" stroke="#222" stroke-width="2"/>
    </pattern>
    <linearGradient id="portraitBg" x1="0" x2="1">
      <stop offset="0" stop-color="#f3f3f3"/>
      <stop offset="1" stop-color="#bdbdbd"/>
    </linearGradient>
  </defs>
  <rect width="900" height="1260" fill="#070707"/>
  <rect width="900" height="1260" fill="url(#grid)" opacity=".55"/>
  <rect x="42" y="42" width="816" height="1176" fill="none" stroke="#f2f2f2" stroke-width="6" opacity=".72"/>
  <text x="74" y="172" fill="#fff" font-family="Arial, Helvetica, sans-serif" font-size="164" font-weight="800" letter-spacing="-6">WANG</text>
  <rect x="505" y="111" width="155" height="22" fill="#fff"/>
  <text x="671" y="166" fill="#fff" font-family="Arial, Helvetica, sans-serif" font-size="98" font-weight="800">13</text>
  <text x="76" y="244" fill="#fff" font-family="Arial, Helvetica, sans-serif" font-size="35" font-weight="700">AIGC CREATOR</text>
  <text x="76" y="287" fill="#fff" font-family="Arial, Helvetica, sans-serif" font-size="35" font-weight="700">&amp; AI BUILDER</text>
  <g fill="#fff" opacity=".72" font-family="Arial, Helvetica, sans-serif" font-size="21" font-weight="700">
    <text x="76" y="405">AIGC-2026 NODE</text>
    <text x="76" y="512">AUTONOMOUS</text>
    <text x="76" y="541">WORKFLOW</text>
    <text x="76" y="650">PROMPT OPS</text>
    <text x="76" y="758">AGENT BUILDER</text>
  </g>
  <g transform="translate(493 210)">
    <rect x="0" y="0" width="290" height="380" fill="url(#portraitBg)"/>
    <rect x="0" y="0" width="48" height="380" fill="#f7f7f7"/>
    <path d="M210 107c33 0 59 25 59 59 0 18-8 34-21 45l24 23c-28 18-63 20-100 4-10-26-18-58-7-91 8-24 21-40 45-40Z" fill="#0c0c0c"/>
    <path d="M152 234c48 4 85 36 105 91l-151 0c4-44 19-75 46-91Z" fill="#0c0c0c"/>
    <path d="M228 178c18 8 29 19 35 34-16 13-39 13-62 1 2-24 10-36 27-35Z" fill="#0c0c0c"/>
    <g fill="#111" opacity=".9">
      <rect x="210" y="292" width="36" height="36"/>
      <rect x="246" y="328" width="36" height="36"/>
      <rect x="174" y="328" width="36" height="36"/>
      <rect x="210" y="364" width="36" height="16"/>
    </g>
  </g>
  <g transform="translate(514 628)">
    <rect x="0" y="0" width="286" height="95" fill="#0b0b0b" stroke="#fff" stroke-width="4" opacity=".92"/>
    <text x="20" y="37" fill="#fff" font-family="Arial, Helvetica, sans-serif" font-size="25" font-weight="700">AIGC CREATOR</text>
    <text x="20" y="72" fill="#fff" font-family="Arial, Helvetica, sans-serif" font-size="25" font-weight="700">&amp; AI BUILDER</text>
  </g>
  <g fill="#fff" opacity=".86">
    <rect x="613" y="780" width="42" height="42"/>
    <rect x="657" y="780" width="42" height="42" opacity=".28"/>
    <rect x="701" y="780" width="42" height="42"/>
    <rect x="745" y="780" width="42" height="42" opacity=".2"/>
    <rect x="569" y="824" width="42" height="42"/>
    <rect x="613" y="824" width="42" height="42" opacity=".24"/>
    <rect x="657" y="824" width="42" height="42"/>
    <rect x="701" y="824" width="42" height="42"/>
    <rect x="745" y="824" width="42" height="42" opacity=".2"/>
    <rect x="613" y="868" width="42" height="42"/>
    <rect x="657" y="868" width="42" height="42"/>
    <rect x="701" y="868" width="42" height="42" opacity=".25"/>
  </g>
  <g fill="#fff" font-family="Arial, Helvetica, sans-serif">
    <text x="76" y="939" font-size="28" font-weight="700" opacity=".7">GOAGENT</text>
    <text x="76" y="990" font-size="34" font-weight="800">AI-EMPLOYEE</text>
  </g>
  <g transform="translate(76 1062)" fill="#fff">
    <rect width="7" height="110"/><rect x="15" width="3" height="110"/><rect x="27" width="12" height="110"/>
    <rect x="47" width="4" height="110"/><rect x="61" width="8" height="110"/><rect x="78" width="3" height="110"/>
    <rect x="91" width="18" height="110"/><rect x="119" width="5" height="110"/><rect x="134" width="10" height="110"/>
    <rect x="156" width="3" height="110"/><rect x="168" width="16" height="110"/><rect x="194" width="7" height="110"/>
    <rect x="212" width="4" height="110"/><rect x="228" width="20" height="110"/><rect x="258" width="6" height="110"/>
    <rect x="276" width="11" height="110"/><rect x="301" width="4" height="110"/><rect x="316" width="17" height="110"/>
    <rect x="345" width="7" height="110"/><rect x="363" width="3" height="110"/><rect x="378" width="14" height="110"/>
    <rect x="407" width="4" height="110"/><rect x="423" width="10" height="110"/><rect x="447" width="18" height="110"/>
  </g>
</svg>
